<svg class="i-logo-avatar" xmlns="http://www.w3.org/2000/svg" viewBox="0 0 40 40"><style>.logo-avatar-cls-1{fill:#e6d74d}.logo-avatar-cls-2{fill:#fff;fill-rule:evenodd}</style><title>Asset 1</title><path class="logo-avatar-cls-1" d="M16.283 21.253H22.1l-2.841-6.84-2.976 6.84z"/><path class="logo-avatar-cls-1" d="M20 0a20 20 0 1 0 20 20A20 20 0 0 0 20 0zm9.363 27.837a18.418 18.418 0 0 0-3.437-.215h-.046a20 20 0 0 0-3.4.215.678.678 0 0 1-.636-.724.719.719 0 0 1 .636-.77c.426 0 .557.045 1.79.045l-1.532-3.651h-7.09l-1.569 3.651c1.059 0 1.569-.045 1.994-.045a.713.713 0 0 1 .633.77.672.672 0 0 1-.633.724 15.358 15.358 0 0 0-2.764-.215 14.316 14.316 0 0 0-2.674.215.651.651 0 0 1-.635-.724.692.692 0 0 1 .635-.77c.425 0 .765.045 1.911.045l6.883-15.794c.124-.383.254-.594.674-.594s.513.171.681.594l6.664 15.794c1.362 0 1.492-.045 1.915-.045a.717.717 0 0 1 .637.77.676.676 0 0 1-.637.724z"/><path class="logo-avatar-cls-2" d="M15.648 22.737l-1.569 3.651c1.059 0 1.569-.045 2-.045a.713.713 0 0 1 .632.77.672.672 0 0 1-.632.724 15.391 15.391 0 0 0-2.765-.215 14.284 14.284 0 0 0-2.673.215.651.651 0 0 1-.641-.724.693.693 0 0 1 .636-.77c.424 0 .764.045 1.91.045l6.883-15.794c.124-.383.254-.594.674-.594s.513.171.681.594l6.664 15.794c1.362 0 1.492-.045 1.915-.045a.717.717 0 0 1 .637.77.676.676 0 0 1-.637.724 18.418 18.418 0 0 0-3.437-.215h-.046a20 20 0 0 0-3.4.215.678.678 0 0 1-.636-.724.719.719 0 0 1 .636-.77c.426 0 .557.045 1.79.045l-1.532-3.651zm6.452-1.484l-2.841-6.84-2.976 6.84z"/></svg>